<?xml version="1.0" encoding="UTF-8" standalone="no"?>
<svg
   xmlns:dc="http://purl.org/dc/elements/1.1/"
   xmlns:cc="http://creativecommons.org/ns#"
   xmlns:rdf="http://www.w3.org/1999/02/22-rdf-syntax-ns#"
   xmlns:svg="http://www.w3.org/2000/svg"
   xmlns="http://www.w3.org/2000/svg"
   xmlns:sodipodi="http://sodipodi.sourceforge.net/DTD/sodipodi-0.dtd"
   xmlns:inkscape="http://www.inkscape.org/namespaces/inkscape"
   version="1.0"
   width="1089.000000pt"
   height="1280.000000pt"
   viewBox="0 0 1089.000000 1280.000000"
   preserveAspectRatio="xMidYMid meet"
   id="svg833"
   sodipodi:docname="traffic_light.svg"
   inkscape:version="0.92.4 (5da689c313, 2019-01-14)">
  <defs
     id="defs837" />
  <sodipodi:namedview
     pagecolor="#ffffff"
     bordercolor="#666666"
     borderopacity="1"
     objecttolerance="10"
     gridtolerance="10"
     guidetolerance="10"
     inkscape:pageopacity="0"
     inkscape:pageshadow="2"
     inkscape:window-width="1920"
     inkscape:window-height="1017"
     id="namedview835"
     showgrid="false"
     inkscape:zoom="0.71677426"
     inkscape:cx="884.82628"
     inkscape:cy="701.97347"
     inkscape:window-x="-8"
     inkscape:window-y="-8"
     inkscape:window-maximized="1"
     inkscape:current-layer="svg833" />
  <metadata
     id="metadata827">
Created by potrace 1.15, written by Peter Selinger 2001-2017
<rdf:RDF>
  <cc:Work
     rdf:about="">
    <dc:format>image/svg+xml</dc:format>
    <dc:type
       rdf:resource="http://purl.org/dc/dcmitype/StillImage" />
  </cc:Work>
</rdf:RDF>
</metadata>
  <g
     transform="translate(0.000000,1280.000000) scale(0.100000,-0.100000)"
     fill="#000000"
     stroke="none"
     id="g831">
    <path
       d="M5181 12784 c-721 -78 -1263 -409 -1407 -859 l-22 -70 -256 -3 -256 -2 0 -110 0 -110 -143 0 -142 0 -78 -78 -77 -77 0 -123 0 -122 -1401 0 -1401 0 5 -327 c3 -188 10 -352 17 -383 77 -370 324 -660 1070 -1260 113 -90 243 -201 289 -245 186 -179 257 -330 283 -607 l12 -128 563 0 563 0 0 -138 0 -137 78 -78 77 -77 143 0 c135 0 142 -1 142 -20 0 -19 -7 -20 -143 -20 l-142 0 -78 -78 -77 -77 0 -123 0 -122 -1397 -2 -1398 -3 0 -320 c0 -223 4 -338 13 -380 83 -383 323 -667 1077 -1272 110 -88 235 -193 277 -233 187 -174 264 -336 290 -610 l12 -130 563 0 563 0 0 -138 0 -137 78 -78 77 -77 143 0 c135 0 142 -1 142 -20 0 -19 -7 -20 -143 -20 l-142 0 -77 -77 -77 -78 -3 -123 -3 -122 -1395 -3 -1395 -2 -3 -265 c-2 -146 2 -305 7 -355 35 -304 160 -516 497 -846 163 -159 268 -249 579 -499 127 -102 266 -221 311 -266 175 -174 240 -318 267 -589 l13 -130 562 -3 562 -2 0 -137 0 -138 72 -72 72 -73 148 0 148 0 0 -105 0 -105 2200 0 2200 0 0 105 0 105 153 0 153 0 72 73 72 72 0 138 0 137 562 2 562 3 13 130 c27 271 92 415 267 589 45 45 185 164 311 266 317 254 417 341 588 509 255 250 387 438 446 632 42 140 46 175 46 504 l0 320 -1395 2 -1395 3 -3 122 -3 123 -77 78 -77 78 -148 -3 -147 -3 0 25 0 25 147 -3 146 -3 79 78 78 78 0 137 0 138 563 0 563 0 12 127 c24 273 103 439 290 613 42 40 166 144 275 233 290 233 441 362 584 500 302 292 436 502 495 772 9 42 13 157 13 380 l0 320 -1397 3 -1398 2 0 123 0 122 -78 78 -79 78 -146 -3 -147 -3 0 25 0 25 147 -3 146 -3 79 78 78 78 0 137 0 138 564 0 563 0 7 98 c19 280 96 451 283 633 43 42 188 166 323 274 322 261 429 353 585 510 237 236 352 400 418 595 44 129 49 173 54 513 l5 327 -1401 0 -1401 0 0 123 0 122 -78 78 -77 77 -148 0 -147 0 0 110 0 110 -238 0 -239 0 -17 61 c-65 236 -273 467 -561 624 -376 205 -921 302 -1404 249z m2466 -3982 c-1 -515 -2 -91 -2 943 0 1034 1 1456 2 937 2 -519 2 -1365 0 -1880z m0 -3820 c-1 -515 -2 -93 -2 938 0 1031 1 1453 2 937 2 -515 2 -1359 0 -1875z m0 -3830 c-1 -515 -2 -91 -2 943 0 1034 1 1456 2 937 2 -519 2 -1365 0 -1880z"
       id="path829" />
  </g>
  <rect
     style="opacity:0.31799999;fill:#000000;fill-opacity:1;stroke:none;stroke-width:0.75118107;stroke-linecap:square;stroke-miterlimit:4;stroke-dasharray:none;stroke-dashoffset:0;stroke-opacity:1;paint-order:stroke fill markers"
     id="rect839"
     width="43.653179"
     height="238.24278"
     x="742.84393"
     y="186.45087" />
  <rect
     style="opacity:0;fill:#000000;fill-opacity:1;stroke:none;stroke-width:0.75118107;stroke-linecap:square;stroke-miterlimit:4;stroke-dasharray:none;stroke-dashoffset:0;stroke-opacity:1;paint-order:stroke fill markers"
     id="rect845"
     width="94.171913"
     height="36.62241"
     x="952.18268"
     y="463.84348" />
  <rect
     style="opacity:1;fill:#000000;fill-opacity:1;stroke:none;stroke-width:0.75118107;stroke-linecap:square;stroke-miterlimit:4;stroke-dasharray:none;stroke-dashoffset:0;stroke-opacity:1;paint-order:stroke fill markers"
     id="rect847"
     width="48.132313"
     height="208.22456"
     x="734.54089"
     y="205.39389" />
  <rect
     style="opacity:1;fill:#000000;fill-opacity:1;stroke:none;stroke-width:0.75118107;stroke-linecap:square;stroke-miterlimit:4;stroke-dasharray:none;stroke-dashoffset:0;stroke-opacity:1;paint-order:stroke fill markers"
     id="rect849"
     width="84.754715"
     height="273.09854"
     x="718.84558"
     y="571.61798" />
  <rect
     style="opacity:1;fill:#000000;fill-opacity:1;stroke:none;stroke-width:0.75118107;stroke-linecap:square;stroke-miterlimit:4;stroke-dasharray:none;stroke-dashoffset:0;stroke-opacity:1;paint-order:stroke fill markers"
     id="rect851"
     width="52.31773"
     height="231.24435"
     x="739.77264"
     y="955.63013" />
</svg>
